<?xml version="1.0" ?><svg enable-background="new 0 0 400 400" id="Layer_1" version="1.1" viewBox="0 0 400 400" xml:space="preserve" xmlns="http://www.w3.org/2000/svg" xmlns:xlink="http://www.w3.org/1999/xlink"><g><path d="M185.796,231.044c-1.847-1.357-4.113-1.911-6.375-1.565l-0.585,0.055l-39.52,1.372   c-6.246,0.218-11.923-2.411-15.772-6.768c-1.477-1.464-2.625-3.251-3.36-5.237c-0.746-1.71-1.266-3.553-1.519-5.496l-0.042-0.648   v-90.112c0-4.735-3.852-8.587-8.587-8.587c-3.227,0-6.153,1.783-7.636,4.654c-0.631,1.221-0.951,2.544-0.951,3.933v57.935   c0.021,1.655-0.579,3.193-1.697,4.341c-1.1,1.129-2.64,1.776-4.225,1.776c-1.6,0-3.154-0.655-4.266-1.798   c-1.11-1.142-1.707-2.658-1.686-4.28v-1.75c0-4.735-3.853-8.587-8.587-8.587c-3.227,0-6.153,1.783-7.636,4.654   c-0.631,1.221-0.951,2.544-0.951,3.933v1.406c0,3.172-2.37,5.895-5.512,6.333c-3.331,0.458-6.126-1.889-7.059-4.536   c-1.339-3.144-4.464-5.231-7.891-5.231c-4.638,0-8.396,3.559-8.557,8.101l-0.034,0.431c-0.203,3.234-2.503,5.959-5.688,6.686   c-1.12,0.256-2.255,0.242-3.325-0.011c-1.688-0.4-3.552-2.277-4.717-3.513c-1.501-1.592-3.811-3.261-6.727-3.261   c-4.735,0-8.587,3.852-8.587,8.587v46.468c0.103,6.5,1.727,23.375,14.554,37.97c2.978,3.39,14.063,14.747,31.656,18.597   c15.263,3.34,30.951,0.59,44.177-7.742c4.63-2.908,8.825-6.443,12.473-10.511l0.073-0.08c0.167-0.179,0.325-0.362,0.485-0.545   l0.223-0.255c0.186-0.214,0.392-0.465,0.598-0.715l1.943-2.351l0.238,0.034c6.183-6.332,25.028-24.593,37.921-25.924l23.482-2.366   c2.224-0.373,4.178-1.574,5.513-3.392c1.357-1.848,1.912-4.113,1.562-6.383C188.853,234.398,187.644,232.402,185.796,231.044z" fill="none"/><path d="M323.327,204.855c-2.189-4.908-3.204-10.334-2.814-15.785l1.095-15.33c0.533-7.466,0.521-15.264-3.147-21.706   l-0.075-0.137l-5.147-9.733v62.447c0,1.381-1.119,2.5-2.5,2.5H161.941c-1.381,0-2.5-1.119-2.5-2.5v-77.449   c0-1.381,1.119-2.5,2.5-2.5h142.004c-1.763-3.571-1.947-7.598-0.734-11.203H133.665c-2.417,0-4.384,1.967-4.384,4.385v96.086   c0,0.43,0.082,0.838,0.198,1.231c0.345,0.729,0.775,1.404,1.273,2.021c0.776,0.697,1.791,1.133,2.914,1.133h185.277   c2.418,0,4.385-1.967,4.385-4.384V204.855z M144.402,175.387c-5.238,0-9.5-4.262-9.5-9.5s4.262-9.5,9.5-9.5s9.5,4.262,9.5,9.5   S149.64,175.387,144.402,175.387z" fill="none"/><path d="M69.313,178.906l-0.685,0.263l0.703-0.2C69.326,178.948,69.32,178.927,69.313,178.906z" fill="none"/><path d="M144.402,161.387c-2.481,0-4.5,2.019-4.5,4.5s2.019,4.5,4.5,4.5s4.5-2.019,4.5-4.5   S146.883,161.387,144.402,161.387z" fill="none"/><path d="M384.784,198.164c-1.775-12.326-3.452-23.97-4.356-36.515c-0.969-6.647-2.844-11.535-5.892-15.366   c-15.5-18.406-29.913-35.19-42.836-49.887c-3.194-3.632-7.811-5.716-12.664-5.716h-36.694c-5.144,0.645-5.19,6.044-5.178,6.666   c0.019,0.968,0.358,5.813,5.195,6.093c0.044,0.003,0.084,0.017,0.128,0.021h31.68c0.346,0,0.687,0.04,1.02,0.109   c4.927-0.662,10.053,1.184,13.4,5.303l0.185,0.242l37.22,51.977c1.607,2.245,1.091,5.369-1.154,6.977   c-2.246,1.607-5.368,1.09-6.977-1.154l-37.115-51.831c-1.602-1.87-4.379-2.202-6.379-0.739c-2.034,1.486-2.545,4.301-1.165,6.409   l0.237,0.401l13.753,26.005c4.948,8.739,5.036,18.282,4.392,27.295l-1.095,15.331c-0.507,7.095,2.372,14.144,7.701,18.856   l11.474,10.146c2.068,1.83,2.262,4.989,0.433,7.058c-0.988,1.117-2.365,1.688-3.748,1.688c-1.177,0-2.359-0.413-3.311-1.254   l-10.129-8.958c-1.244,5.123-5.23,9.172-10.317,10.509c4.005,4.998,8.429,9.627,14.017,12.788   c6.045,2.537,12.976,3.417,20.072,2.547c10.062-1.706,18.836-7.588,24.166-16.183c1.053-3.042,2.129-5.194,3.084-7.104   c2.101-4.202,2.584-9.622,1.522-17.057L384.784,198.164z" fill="none"/><polygon fill="none" points="308.238,202.111 308.238,132.71 306.626,129.662 164.441,129.662 164.441,202.111  "/><path d="M395.352,201.405l-0.67-4.667c-1.757-12.202-3.417-23.727-4.292-35.982l-0.038-0.351   c-1.229-8.604-3.786-15.092-8.045-20.417l-0.08-0.097c-15.563-18.48-30.036-35.336-43.019-50.1   c-5.093-5.791-12.446-9.112-20.173-9.112h-36.966l-0.484,0.023c-9.664,0.94-14.569,9.182-14.419,16.838   c0.041,2.126,0.427,4.112,1.093,5.918H133.665c-4.531,0-8.573,2.111-11.211,5.395c-3.296-2.971-7.642-4.796-12.418-4.796   c-6.983,0-13.313,3.856-16.521,10.064c-1.352,2.616-2.066,5.563-2.066,8.523v40.866c-2.982-2.038-6.585-3.23-10.461-3.23   c-6.983,0-13.313,3.856-16.521,10.064c-0.165,0.32-0.321,0.645-0.467,0.973c-3.302-2.82-7.561-4.478-12.061-4.478   c-8.131,0-15.017,5.102-17.537,12.321c-3.152-2.532-7.108-3.887-11.511-3.887c-10.249,0-18.587,8.338-18.587,18.587l0,46.546   c0.089,5.646,1.146,17.788,7.654,30.611c5.183,20.503,19.049,37.203,37.784,44.452c7.3,2.825,14.407,3.852,20.889,3.852   c12.182,0,22.146-3.631,26.967-5.777c1.262-0.562,1.829-2.039,1.267-3.3c-0.562-1.262-2.041-1.831-3.3-1.267   c-6.815,3.034-24.749,9.286-44.018,1.83c-11.06-4.279-20.27-12.177-26.716-22.302c5.844,5.6,17.319,14.608,33.545,18.159   c4.952,1.083,9.939,1.619,14.895,1.619c12.902,0,25.578-3.63,36.744-10.665c5.399-3.39,10.298-7.516,14.561-12.262   c0.236-0.253,0.462-0.512,0.689-0.772l0.221-0.252c0.261-0.303,0.517-0.611,0.771-0.92l0.023-0.028   c8.547-9.103,25.1-23.772,33.379-24.627l23.615-2.379l0.261-0.033c10.134-1.562,17.11-11.069,15.551-21.194   c-0.377-2.459-1.224-4.77-2.477-6.834h113.765c5.622,7.575,12.072,15.875,21.6,21.168l0.458,0.225   c5.84,2.503,12.298,3.781,18.967,3.781c2.19,0,4.402-0.138,6.623-0.416l0.202-0.029c11.935-1.989,22.459-8.581,29.412-18.266   c-1.241,2.896-2.815,5.655-4.732,8.199c-6.412,8.507-15.893,13.713-26.697,14.657c-6.449,0.566-12.698-0.295-18.065-2.485   c-1.278-0.52-2.738,0.092-3.259,1.371s0.092,2.738,1.371,3.259c4.896,1.997,10.404,3.023,16.131,3.023   c1.408,0,2.83-0.062,4.258-0.187c12.233-1.069,22.978-6.975,30.254-16.629c6.734-8.935,9.842-20.154,8.813-31.371   C396.313,209.709,395.869,205.027,395.352,201.405z M69.313,178.906c0.006,0.021,0.013,0.042,0.019,0.063l-0.703,0.2   L69.313,178.906z M187.64,243.048c-1.334,1.818-3.289,3.019-5.513,3.392l-23.482,2.366c-12.893,1.331-31.738,19.592-37.921,25.924   l-0.238-0.034l-1.943,2.351c-0.206,0.25-0.412,0.5-0.598,0.715l-0.223,0.255c-0.16,0.184-0.318,0.367-0.485,0.545l-0.073,0.08   c-3.648,4.068-7.843,7.604-12.473,10.511c-13.227,8.333-28.915,11.082-44.177,7.742c-17.593-3.85-28.678-15.208-31.656-18.597   c-12.827-14.596-14.452-31.471-14.554-37.97V193.86c0-4.735,3.852-8.587,8.587-8.587c2.916,0,5.226,1.669,6.727,3.261   c1.165,1.236,3.03,3.113,4.717,3.513c1.071,0.253,2.205,0.267,3.325,0.011c3.185-0.727,5.485-3.452,5.688-6.686l0.034-0.431   c0.161-4.542,3.919-8.101,8.557-8.101c3.426,0,6.551,2.087,7.891,5.231c0.933,2.647,3.729,4.993,7.059,4.536   c3.142-0.438,5.512-3.161,5.512-6.333v-1.406c0-1.389,0.32-2.712,0.951-3.933c1.483-2.871,4.409-4.654,7.636-4.654   c4.735,0,8.587,3.852,8.587,8.587v1.75c-0.021,1.622,0.575,3.139,1.686,4.28c1.112,1.143,2.667,1.798,4.266,1.798   c1.585,0,3.125-0.647,4.225-1.776c1.118-1.147,1.719-2.686,1.697-4.341v-57.935c0-1.389,0.32-2.712,0.951-3.933   c1.483-2.871,4.409-4.654,7.636-4.654c4.735,0,8.587,3.852,8.587,8.587v90.112l0.042,0.648c0.254,1.943,0.774,3.786,1.519,5.496   c0.735,1.986,1.883,3.773,3.36,5.237c3.849,4.357,9.526,6.987,15.772,6.768l39.52-1.372l0.585-0.055   c2.263-0.346,4.528,0.208,6.375,1.565c1.848,1.357,3.057,3.354,3.405,5.621C189.551,238.935,188.997,241.201,187.64,243.048z    M318.942,218.314H133.665c-1.123,0-2.138-0.437-2.914-1.133c-0.498-0.616-0.928-1.291-1.273-2.021   c-0.116-0.393-0.198-0.8-0.198-1.231v-96.086c0-2.418,1.967-4.385,4.384-4.385h169.545c-1.213,3.605-1.029,7.632,0.734,11.203   H161.941c-1.381,0-2.5,1.119-2.5,2.5v77.449c0,1.381,1.119,2.5,2.5,2.5h148.797c1.381,0,2.5-1.119,2.5-2.5v-62.447l5.147,9.733   l0.075,0.137c3.668,6.441,3.681,14.239,3.147,21.706l-1.095,15.33c-0.389,5.45,0.626,10.877,2.814,15.785v9.076   C323.327,216.348,321.36,218.314,318.942,218.314z M306.626,129.662l1.612,3.048v69.402H164.441v-72.449H306.626z M383.93,219.876   c-0.955,1.91-2.031,4.062-3.084,7.104c-5.33,8.595-14.104,14.477-24.166,16.183c-7.096,0.87-14.027-0.01-20.072-2.547   c-5.589-3.161-10.012-7.791-14.017-12.788c5.087-1.337,9.073-5.386,10.317-10.509l10.129,8.958   c0.952,0.841,2.133,1.254,3.311,1.254c1.383,0,2.759-0.57,3.748-1.688c1.829-2.069,1.635-5.229-0.433-7.058l-11.474-10.146   c-5.329-4.712-8.208-11.761-7.701-18.856l1.095-15.331c0.644-9.014,0.556-18.557-4.392-27.295l-13.753-26.005l-0.237-0.401   c-1.38-2.108-0.869-4.923,1.165-6.409c2-1.463,4.778-1.13,6.379,0.739l37.115,51.831c1.608,2.245,4.731,2.762,6.977,1.154   c2.245-1.608,2.762-4.731,1.154-6.977l-37.22-51.977l-0.185-0.242c-3.347-4.118-8.473-5.965-13.4-5.303   c-0.333-0.069-0.674-0.109-1.02-0.109h-31.68c-0.044-0.004-0.084-0.018-0.128-0.021c-4.836-0.28-5.176-5.125-5.195-6.093   c-0.012-0.622,0.034-6.021,5.178-6.666h36.694c4.854,0,9.47,2.083,12.664,5.716c12.924,14.697,27.336,31.481,42.836,49.887   c3.048,3.831,4.923,8.719,5.892,15.366c0.904,12.545,2.582,24.189,4.356,36.515l0.668,4.655   C386.514,210.254,386.031,215.674,383.93,219.876z" fill="#333333"/><path d="M144.402,156.387c-5.238,0-9.5,4.262-9.5,9.5s4.262,9.5,9.5,9.5s9.5-4.262,9.5-9.5   S149.64,156.387,144.402,156.387z M144.402,170.387c-2.481,0-4.5-2.019-4.5-4.5s2.019-4.5,4.5-4.5s4.5,2.019,4.5,4.5   S146.883,170.387,144.402,170.387z" fill="#333333"/></g></svg>